<?xml version="1.0" encoding="UTF-8"?>
<svg width="512" height="512" viewBox="0 0 512 512" version="1.1" xmlns="http://www.w3.org/2000/svg" role="img" aria-labelledby="title desc">
  <title id="title">BC Dev Toolset</title>
  <desc id="desc">Pixelated BC Dev Toolset extension logo inspired by the dam-pav personal logo.</desc>
  <rect width="512" height="512" fill="#0000ff"/>
  <g fill="#ffffff" shape-rendering="crispEdges">
    <g transform="translate(91 126) scale(10)">
      <!-- B -->
      <rect x="0" y="0" width="1" height="7"/>
      <rect x="1" y="0" width="3" height="1"/>
      <rect x="1" y="3" width="3" height="1"/>
      <rect x="1" y="6" width="3" height="1"/>
      <rect x="4" y="1" width="1" height="2"/>
      <rect x="4" y="4" width="1" height="2"/>
      <!-- C -->
      <rect x="7" y="0" width="3" height="1"/>
      <rect x="6" y="1" width="1" height="5"/>
      <rect x="7" y="6" width="3" height="1"/>
      <rect x="10" y="1" width="1" height="1"/>
      <rect x="10" y="5" width="1" height="1"/>
      <!-- dash -->
      <rect x="12" y="3" width="3" height="1"/>
      <!-- D -->
      <rect x="16" y="0" width="1" height="7"/>
      <rect x="17" y="0" width="3" height="1"/>
      <rect x="20" y="1" width="1" height="5"/>
      <rect x="17" y="6" width="3" height="1"/>
      <!-- E -->
      <rect x="22" y="0" width="5" height="1"/>
      <rect x="22" y="1" width="1" height="5"/>
      <rect x="22" y="3" width="4" height="1"/>
      <rect x="22" y="6" width="5" height="1"/>
      <!-- V -->
      <rect x="28" y="0" width="1" height="4"/>
      <rect x="32" y="0" width="1" height="4"/>
      <rect x="29" y="4" width="1" height="2"/>
      <rect x="31" y="4" width="1" height="2"/>
      <rect x="30" y="6" width="1" height="1"/>
    </g>
    <rect x="166" y="246" width="180" height="12"/>
    <g transform="translate(51 306) scale(10)">
      <!-- T -->
      <rect x="0" y="0" width="5" height="1"/>
      <rect x="2" y="1" width="1" height="6"/>
      <!-- O -->
      <rect x="7" y="0" width="3" height="1"/>
      <rect x="6" y="1" width="1" height="5"/>
      <rect x="10" y="1" width="1" height="5"/>
      <rect x="7" y="6" width="3" height="1"/>
      <!-- O -->
      <rect x="13" y="0" width="3" height="1"/>
      <rect x="12" y="1" width="1" height="5"/>
      <rect x="16" y="1" width="1" height="5"/>
      <rect x="13" y="6" width="3" height="1"/>
      <!-- L -->
      <rect x="18" y="0" width="1" height="7"/>
      <rect x="18" y="6" width="5" height="1"/>
      <!-- S -->
      <rect x="25" y="0" width="3" height="1"/>
      <rect x="24" y="1" width="1" height="1"/>
      <rect x="28" y="1" width="1" height="1"/>
      <rect x="24" y="2" width="1" height="1"/>
      <rect x="25" y="3" width="3" height="1"/>
      <rect x="28" y="4" width="1" height="1"/>
      <rect x="24" y="5" width="1" height="1"/>
      <rect x="28" y="5" width="1" height="1"/>
      <rect x="25" y="6" width="3" height="1"/>
      <!-- E -->
      <rect x="30" y="0" width="5" height="1"/>
      <rect x="30" y="1" width="1" height="5"/>
      <rect x="30" y="3" width="4" height="1"/>
      <rect x="30" y="6" width="5" height="1"/>
      <!-- T -->
      <rect x="36" y="0" width="5" height="1"/>
      <rect x="38" y="1" width="1" height="6"/>
    </g>
  </g>
</svg>
