<?xml version="1.0" encoding="UTF-8" standalone="no"?>
<svg
   width="512"
   height="512"
   viewBox="0 0 512 512"
   version="1.1"
   role="img"
   aria-labelledby="title desc"
   id="svg55"
   sodipodi:docname="bc-dev-toolset.logo.svg"
   inkscape:export-filename="bc-dev-toolset.logo.png"
   inkscape:export-xdpi="24"
   inkscape:export-ydpi="24"
   inkscape:version="1.4.4 (dcaf3e7, 2026-05-05)"
   xmlns:inkscape="http://www.inkscape.org/namespaces/inkscape"
   xmlns:sodipodi="http://sodipodi.sourceforge.net/DTD/sodipodi-0.dtd"
   xmlns="http://www.w3.org/2000/svg"
   xmlns:svg="http://www.w3.org/2000/svg">
  <defs
     id="defs55" />
  <sodipodi:namedview
     id="namedview55"
     pagecolor="#ffffff"
     bordercolor="#000000"
     borderopacity="0.25"
     inkscape:showpageshadow="2"
     inkscape:pageopacity="0.0"
     inkscape:pagecheckerboard="0"
     inkscape:deskcolor="#d1d1d1"
     inkscape:zoom="1.6621094"
     inkscape:cx="256.30082"
     inkscape:cy="256"
     inkscape:window-width="1920"
     inkscape:window-height="1111"
     inkscape:window-x="-9"
     inkscape:window-y="-9"
     inkscape:window-maximized="1"
     inkscape:current-layer="svg55" />
  <title
     id="title">BC Dev Toolset</title>
  <desc
     id="desc">Pixelated BC Dev Toolset extension logo inspired by the dam-pav personal logo.</desc>
  <rect
     width="512"
     height="512"
     fill="#0000ff"
     id="rect1" />
  <g
     fill="#ffffff"
     shape-rendering="crispEdges"
     id="g55">
    <g
       transform="translate(91 126) scale(10)"
       id="g26">
      <!-- B -->
      <rect
         x="0"
         y="0"
         width="1"
         height="7"
         id="rect2" />
      <rect
         x="1"
         y="0"
         width="3"
         height="1"
         id="rect3" />
      <rect
         x="1"
         y="3"
         width="3"
         height="1"
         id="rect4" />
      <rect
         x="1"
         y="6"
         width="3"
         height="1"
         id="rect5" />
      <rect
         x="4"
         y="1"
         width="1"
         height="2"
         id="rect6" />
      <rect
         x="4"
         y="4"
         width="1"
         height="2"
         id="rect7" />
      <!-- C -->
      <rect
         x="7"
         y="0"
         width="3"
         height="1"
         id="rect8" />
      <rect
         x="6"
         y="1"
         width="1"
         height="5"
         id="rect9" />
      <rect
         x="7"
         y="6"
         width="3"
         height="1"
         id="rect10" />
      <rect
         x="10"
         y="1"
         width="1"
         height="1"
         id="rect11" />
      <rect
         x="10"
         y="5"
         width="1"
         height="1"
         id="rect12" />
      <!-- dash -->
      <rect
         x="12"
         y="3"
         width="3"
         height="1"
         id="rect13" />
      <!-- D -->
      <rect
         x="16"
         y="0"
         width="1"
         height="7"
         id="rect14" />
      <rect
         x="17"
         y="0"
         width="3"
         height="1"
         id="rect15" />
      <rect
         x="20"
         y="1"
         width="1"
         height="5"
         id="rect16" />
      <rect
         x="17"
         y="6"
         width="3"
         height="1"
         id="rect17" />
      <!-- E -->
      <rect
         x="22"
         y="0"
         width="5"
         height="1"
         id="rect18" />
      <rect
         x="22"
         y="1"
         width="1"
         height="5"
         id="rect19" />
      <rect
         x="22"
         y="3"
         width="4"
         height="1"
         id="rect20" />
      <rect
         x="22"
         y="6"
         width="5"
         height="1"
         id="rect21" />
      <!-- V -->
      <rect
         x="28"
         y="0"
         width="1"
         height="4"
         id="rect22" />
      <rect
         x="32"
         y="0"
         width="1"
         height="4"
         id="rect23" />
      <rect
         x="29"
         y="4"
         width="1"
         height="2"
         id="rect24" />
      <rect
         x="31"
         y="4"
         width="1"
         height="2"
         id="rect25" />
      <rect
         x="30"
         y="6"
         width="1"
         height="1"
         id="rect26" />
    </g>
    <rect
       x="166"
       y="246"
       width="180"
       height="12"
       id="rect27" />
    <g
       transform="translate(51 306) scale(10)"
       id="g54">
      <!-- T -->
      <rect
         x="0"
         y="0"
         width="5"
         height="1"
         id="rect28" />
      <rect
         x="2"
         y="1"
         width="1"
         height="6"
         id="rect29" />
      <!-- O -->
      <rect
         x="7"
         y="0"
         width="3"
         height="1"
         id="rect30" />
      <rect
         x="6"
         y="1"
         width="1"
         height="5"
         id="rect31" />
      <rect
         x="10"
         y="1"
         width="1"
         height="5"
         id="rect32" />
      <rect
         x="7"
         y="6"
         width="3"
         height="1"
         id="rect33" />
      <!-- O -->
      <rect
         x="13"
         y="0"
         width="3"
         height="1"
         id="rect34" />
      <rect
         x="12"
         y="1"
         width="1"
         height="5"
         id="rect35" />
      <rect
         x="16"
         y="1"
         width="1"
         height="5"
         id="rect36" />
      <rect
         x="13"
         y="6"
         width="3"
         height="1"
         id="rect37" />
      <!-- L -->
      <rect
         x="18"
         y="0"
         width="1"
         height="7"
         id="rect38" />
      <rect
         x="18"
         y="6"
         width="5"
         height="1"
         id="rect39" />
      <!-- S -->
      <rect
         x="25"
         y="0"
         width="3"
         height="1"
         id="rect40" />
      <rect
         x="24"
         y="1"
         width="1"
         height="1"
         id="rect41" />
      <rect
         x="28"
         y="1"
         width="1"
         height="1"
         id="rect42" />
      <rect
         x="24"
         y="2"
         width="1"
         height="1"
         id="rect43" />
      <rect
         x="25"
         y="3"
         width="3"
         height="1"
         id="rect44" />
      <rect
         x="28"
         y="4"
         width="1"
         height="1"
         id="rect45" />
      <rect
         x="24"
         y="5"
         width="1"
         height="1"
         id="rect46" />
      <rect
         x="28"
         y="5"
         width="1"
         height="1"
         id="rect47" />
      <rect
         x="25"
         y="6"
         width="3"
         height="1"
         id="rect48" />
      <!-- E -->
      <rect
         x="30"
         y="0"
         width="5"
         height="1"
         id="rect49" />
      <rect
         x="30"
         y="1"
         width="1"
         height="5"
         id="rect50" />
      <rect
         x="30"
         y="3"
         width="4"
         height="1"
         id="rect51" />
      <rect
         x="30"
         y="6"
         width="5"
         height="1"
         id="rect52" />
      <!-- T -->
      <rect
         x="36"
         y="0"
         width="5"
         height="1"
         id="rect53" />
      <rect
         x="38"
         y="1"
         width="1"
         height="6"
         id="rect54" />
    </g>
  </g>
</svg>
